<svg xmlns="http://www.w3.org/2000/svg" width="96" height="24" viewBox="0 0 96 24" fill="none">
    <path fill-rule="evenodd" clip-rule="evenodd"
        d="M12.3238 21.248C10.4456 21.2479 8.60962 20.7055 7.04798 19.6894C5.48634 18.6732 4.2692 17.229 3.55045 15.5393C2.83171 13.8495 2.64365 11.9902 3.01005 10.1964C3.37645 8.40261 4.28086 6.75489 5.60891 5.4616C7.24131 3.87302 9.41159 2.9172 11.7146 2.77254C14.0177 2.62789 16.2961 3.30429 18.1245 4.6755C18.3958 4.88112 18.7348 4.98336 19.078 4.96305C19.4212 4.94273 19.745 4.80127 19.9887 4.56516C20.1304 4.42718 20.2403 4.26134 20.3109 4.07872C20.3815 3.89611 20.4113 3.70092 20.3983 3.5062C20.3852 3.31147 20.3297 3.1217 20.2353 2.94955C20.141 2.7774 20.01 2.62685 19.8511 2.50794C18.3402 1.3746 15.8026 2.45005e-09 12.3238 2.45005e-09C9.8864 -4.79479e-05 7.50372 0.70374 5.47707 2.02236C3.45043 3.34098 1.87085 5.21522 0.938093 7.40804C0.00533306 9.60086 -0.238715 12.0138 0.236813 14.3417C0.71234 16.6696 1.88608 18.8079 3.60961 20.4862C5.731 22.5506 8.55241 23.7913 11.5456 23.976C14.5387 24.1606 17.4983 23.2765 19.8703 21.4892C20.0258 21.371 20.1538 21.2221 20.2458 21.0521C20.3377 20.8821 20.3915 20.6951 20.4036 20.5033C20.4157 20.3116 20.3859 20.1196 20.316 19.9399C20.2461 19.7603 20.1378 19.5971 19.9983 19.4613L19.9682 19.432C19.7287 19.1991 19.4104 19.0591 19.0726 19.0381C18.7348 19.0171 18.4008 19.1166 18.1328 19.3179C16.4707 20.5722 14.4266 21.2513 12.3238 21.248ZM24.876 18.1989C25.8764 16.2782 26.3954 14.1541 26.3907 12.0004C26.3952 9.85121 25.8779 7.73138 24.8811 5.81383C24.7199 5.50768 24.6821 5.15386 24.7752 4.82195C24.8683 4.49004 25.0856 4.20408 25.3843 4.0203C25.55 3.91815 25.7358 3.85082 25.9298 3.82263C26.1237 3.79444 26.3216 3.80601 26.5107 3.8566C26.6998 3.90718 26.876 3.99567 27.028 4.1164C27.1799 4.23713 27.3043 4.38743 27.3932 4.55767C28.5936 6.8672 29.2185 9.41956 29.2174 12.008C29.2163 14.5965 28.5892 17.1484 27.3868 19.4569C27.2979 19.6271 27.1734 19.7774 27.0215 19.898C26.8695 20.0187 26.6933 20.1071 26.5042 20.1576C26.3151 20.2082 26.1172 20.2197 25.9233 20.1914C25.7293 20.1632 25.5436 20.0958 25.3779 19.9937C25.0791 19.8097 24.8618 19.5234 24.7689 19.1912C24.6761 18.859 24.7142 18.505 24.876 18.1989ZM20.9549 15.8693C21.5278 14.656 21.8232 13.3359 21.8204 12.0004C21.8231 10.6692 21.5296 9.35309 20.96 8.14285C20.8168 7.83944 20.7919 7.49569 20.8897 7.17568C20.9876 6.85567 21.2017 6.58124 21.492 6.40356C21.6626 6.29927 21.8541 6.23163 22.0537 6.20515C22.2533 6.17868 22.4564 6.19398 22.6495 6.25003C22.8425 6.30608 23.0211 6.4016 23.1732 6.53021C23.3253 6.65881 23.4475 6.81754 23.5316 6.99579C24.268 8.56938 24.6485 10.2787 24.6474 12.008C24.6463 13.7373 24.2636 15.4461 23.5252 17.0188C23.4412 17.197 23.3191 17.3557 23.167 17.4842C23.015 17.6127 22.8365 17.7081 22.6436 17.7641C22.4506 17.82 22.2476 17.8352 22.0481 17.8086C21.8486 17.782 21.6573 17.7142 21.4869 17.6098C21.1962 17.4321 20.982 17.1574 20.8841 16.8371C20.7862 16.5168 20.8113 16.1728 20.9549 15.8693ZM18.7046 10.6146C19.0818 10.6146 19.4435 10.7603 19.7104 11.0198C19.8427 11.1485 19.9478 11.3014 20.0194 11.4696C20.091 11.6379 20.1278 11.8183 20.1277 12.0004C20.1244 14.0132 19.3018 15.9426 17.8402 17.3659C16.3786 18.7891 14.3973 19.5902 12.3303 19.5934C7.49564 19.5934 3.67566 15.287 4.69995 10.4064C4.99965 8.97685 5.72169 7.6637 6.77735 6.6283C7.833 5.5929 9.17629 4.88036 10.6421 4.57825C12.7343 4.15434 14.7982 4.53274 16.4902 5.57569C16.6694 5.68661 16.8207 5.83534 16.9329 6.01087C17.0451 6.1864 17.1154 6.38424 17.1385 6.58978C17.1616 6.79531 17.137 7.00327 17.0664 7.19829C16.9959 7.39331 16.8812 7.57039 16.7309 7.71644C16.5034 7.93983 16.2048 8.08136 15.8839 8.11783C15.563 8.15429 15.2389 8.08355 14.9647 7.91717C14.2201 7.46177 13.3645 7.20755 12.4857 7.18061C11.6068 7.15367 10.7365 7.35499 9.964 7.76389C9.1915 8.17279 8.54468 8.77455 8.08996 9.50736C7.63525 10.2402 7.38902 11.0776 7.37656 11.9337C7.34007 14.5389 9.46804 16.7214 12.1414 16.8168C13.2367 16.8562 14.3145 16.5411 15.2064 15.9208C16.0983 15.3004 16.7539 14.4098 17.0709 13.3881L13.7643 13.3925H13.7566C13.3843 13.3848 13.03 13.2354 12.7695 12.9763C12.5089 12.7172 12.3631 12.369 12.3631 12.0064C12.3631 11.6437 12.5089 11.2956 12.7695 11.0365C13.03 10.7773 13.3843 10.6279 13.7566 10.6202L18.7046 10.6146ZM85.4404 1.41146C79.6086 1.41146 74.8809 6.15197 74.8809 11.9997C74.8809 17.8474 79.6086 22.5879 85.4404 22.5879C91.2723 22.5879 95.9999 17.8474 95.9999 11.9997C95.9999 6.15197 91.2723 1.41146 85.4404 1.41146ZM78.0802 11.9997C78.0802 7.92367 81.3755 4.61941 85.4404 4.61941C89.5054 4.61941 92.8007 7.92367 92.8007 11.9997C92.8007 16.0757 89.5054 19.38 85.4404 19.38C81.3755 19.38 78.0802 16.0757 78.0802 11.9997ZM38.6136 21.819C37.618 21.819 36.85 21.0489 36.85 20.0791V9.65496H36.1735C35.4053 9.65496 34.7826 9.03051 34.7826 8.2602C34.7826 7.4899 35.4053 6.86544 36.1735 6.86544H36.85V3.47892C36.85 2.48063 37.618 1.71052 38.6136 1.71052H44.7009C48.7496 1.71052 51.4699 3.70851 52.1181 6.86544H52.8653C53.6335 6.86544 54.2562 7.4899 54.2562 8.2602C54.2562 9.03051 53.6335 9.65496 52.8653 9.65496H52.1735C51.5823 13.3414 48.2689 15.2588 44.3027 15.2588H40.3488V20.0791C40.3488 21.0489 39.5808 21.819 38.6136 21.819ZM48.6989 8.12369C48.6946 8.1686 48.6923 8.21414 48.6923 8.2602C48.6923 8.33974 48.699 8.41771 48.7117 8.49361V8.52744C48.7117 10.6096 47.0619 12.0928 44.4165 12.0928H40.3488V4.90506H44.4165C46.9009 4.90506 48.5394 6.01048 48.6989 8.12369ZM56.1483 20.0791C56.1483 21.0489 56.9163 21.819 57.9119 21.819C58.879 21.819 59.6471 21.0489 59.6471 20.0791V14.7168H64.056L68.8918 20.9063C69.2901 21.4482 69.8021 21.819 70.5986 21.819C71.4519 21.819 72.2767 21.163 72.2767 20.1932C72.2767 19.6513 72.0491 19.2805 71.7078 18.8526L67.8962 14.0323C70.5701 13.2052 72.4191 11.2656 72.4191 8.0711V8.01399C72.4191 6.27411 71.8217 4.79098 70.7692 3.70712C69.4892 2.45212 67.5264 1.71051 65.0232 1.71051H57.9119C56.9163 1.71051 56.1483 2.48063 56.1483 3.47892V20.0791ZM59.6471 11.6079V4.90507H64.7388C67.3274 4.90507 68.8634 6.07448 68.8634 8.21368V8.27071C68.8634 10.2958 67.2705 11.6079 64.7673 11.6079H59.6471Z"
        fill="white" />
    <path fill-rule="evenodd" clip-rule="evenodd"
        d="M12.3238 21.248C10.4456 21.2479 8.60962 20.7055 7.04798 19.6894C5.48634 18.6732 4.2692 17.229 3.55045 15.5393C2.83171 13.8495 2.64365 11.9902 3.01005 10.1964C3.37645 8.40261 4.28086 6.75489 5.60891 5.4616C7.24131 3.87302 9.41159 2.9172 11.7146 2.77254C14.0177 2.62789 16.2961 3.30429 18.1245 4.6755C18.3958 4.88112 18.7348 4.98336 19.078 4.96305C19.4212 4.94273 19.745 4.80127 19.9887 4.56516C20.1304 4.42718 20.2403 4.26134 20.3109 4.07872C20.3815 3.89611 20.4113 3.70092 20.3983 3.5062C20.3852 3.31147 20.3297 3.1217 20.2353 2.94955C20.141 2.7774 20.01 2.62685 19.8511 2.50794C18.3402 1.3746 15.8026 2.45005e-09 12.3238 2.45005e-09C9.8864 -4.79479e-05 7.50372 0.70374 5.47707 2.02236C3.45043 3.34098 1.87085 5.21522 0.938093 7.40804C0.00533306 9.60086 -0.238715 12.0138 0.236813 14.3417C0.71234 16.6696 1.88608 18.8079 3.60961 20.4862C5.731 22.5506 8.55241 23.7913 11.5456 23.976C14.5387 24.1606 17.4983 23.2765 19.8703 21.4892C20.0258 21.371 20.1538 21.2221 20.2458 21.0521C20.3377 20.8821 20.3915 20.6951 20.4036 20.5033C20.4157 20.3116 20.3859 20.1196 20.316 19.9399C20.2461 19.7603 20.1378 19.5971 19.9983 19.4613L19.9682 19.432C19.7287 19.1991 19.4104 19.0591 19.0726 19.0381C18.7348 19.0171 18.4008 19.1166 18.1328 19.3179C16.4707 20.5722 14.4266 21.2513 12.3238 21.248ZM24.876 18.1989C25.8764 16.2782 26.3954 14.1541 26.3907 12.0004C26.3952 9.85121 25.8779 7.73138 24.8811 5.81383C24.7199 5.50768 24.6821 5.15386 24.7752 4.82195C24.8683 4.49004 25.0856 4.20408 25.3843 4.0203C25.55 3.91815 25.7358 3.85082 25.9298 3.82263C26.1237 3.79444 26.3216 3.80601 26.5107 3.8566C26.6998 3.90718 26.876 3.99567 27.028 4.1164C27.1799 4.23713 27.3043 4.38743 27.3932 4.55767C28.5936 6.8672 29.2185 9.41956 29.2174 12.008C29.2163 14.5965 28.5892 17.1484 27.3868 19.4569C27.2979 19.6271 27.1734 19.7774 27.0215 19.898C26.8695 20.0187 26.6933 20.1071 26.5042 20.1576C26.3151 20.2082 26.1172 20.2197 25.9233 20.1914C25.7293 20.1632 25.5436 20.0958 25.3779 19.9937C25.0791 19.8097 24.8618 19.5234 24.7689 19.1912C24.6761 18.859 24.7142 18.505 24.876 18.1989ZM20.9549 15.8693C21.5278 14.656 21.8232 13.3359 21.8204 12.0004C21.8231 10.6692 21.5296 9.35309 20.96 8.14285C20.8168 7.83944 20.7919 7.49569 20.8897 7.17568C20.9876 6.85567 21.2017 6.58124 21.492 6.40356C21.6626 6.29927 21.8541 6.23163 22.0537 6.20515C22.2533 6.17868 22.4564 6.19398 22.6495 6.25003C22.8425 6.30608 23.0211 6.4016 23.1732 6.53021C23.3253 6.65881 23.4475 6.81754 23.5316 6.99579C24.268 8.56938 24.6485 10.2787 24.6474 12.008C24.6463 13.7373 24.2636 15.4461 23.5252 17.0188C23.4412 17.197 23.3191 17.3557 23.167 17.4842C23.015 17.6127 22.8365 17.7081 22.6436 17.7641C22.4506 17.82 22.2476 17.8352 22.0481 17.8086C21.8486 17.782 21.6573 17.7142 21.4869 17.6098C21.1962 17.4321 20.982 17.1574 20.8841 16.8371C20.7862 16.5168 20.8113 16.1728 20.9549 15.8693ZM18.7046 10.6146C19.0818 10.6146 19.4435 10.7603 19.7104 11.0198C19.8427 11.1485 19.9478 11.3014 20.0194 11.4696C20.091 11.6379 20.1278 11.8183 20.1277 12.0004C20.1244 14.0132 19.3018 15.9426 17.8402 17.3659C16.3786 18.7891 14.3973 19.5902 12.3303 19.5934C7.49564 19.5934 3.67566 15.287 4.69995 10.4064C4.99965 8.97685 5.72169 7.6637 6.77735 6.6283C7.833 5.5929 9.17629 4.88036 10.6421 4.57825C12.7343 4.15434 14.7982 4.53274 16.4902 5.57569C16.6694 5.68661 16.8207 5.83534 16.9329 6.01087C17.0451 6.1864 17.1154 6.38424 17.1385 6.58978C17.1616 6.79531 17.137 7.00327 17.0664 7.19829C16.9959 7.39331 16.8812 7.57039 16.7309 7.71644C16.5034 7.93983 16.2048 8.08136 15.8839 8.11783C15.563 8.15429 15.2389 8.08355 14.9647 7.91717C14.2201 7.46177 13.3645 7.20755 12.4857 7.18061C11.6068 7.15367 10.7365 7.35499 9.964 7.76389C9.1915 8.17279 8.54468 8.77455 8.08996 9.50736C7.63525 10.2402 7.38902 11.0776 7.37656 11.9337C7.34007 14.5389 9.46804 16.7214 12.1414 16.8168C13.2367 16.8562 14.3145 16.5411 15.2064 15.9208C16.0983 15.3004 16.7539 14.4098 17.0709 13.3881L13.7643 13.3925H13.7566C13.3843 13.3848 13.03 13.2354 12.7695 12.9763C12.5089 12.7172 12.3631 12.369 12.3631 12.0064C12.3631 11.6437 12.5089 11.2956 12.7695 11.0365C13.03 10.7773 13.3843 10.6279 13.7566 10.6202L18.7046 10.6146ZM85.4404 1.41146C79.6086 1.41146 74.8809 6.15197 74.8809 11.9997C74.8809 17.8474 79.6086 22.5879 85.4404 22.5879C91.2723 22.5879 95.9999 17.8474 95.9999 11.9997C95.9999 6.15197 91.2723 1.41146 85.4404 1.41146ZM78.0802 11.9997C78.0802 7.92367 81.3755 4.61941 85.4404 4.61941C89.5054 4.61941 92.8007 7.92367 92.8007 11.9997C92.8007 16.0757 89.5054 19.38 85.4404 19.38C81.3755 19.38 78.0802 16.0757 78.0802 11.9997ZM38.6136 21.819C37.618 21.819 36.85 21.0489 36.85 20.0791V9.65496H36.1735C35.4053 9.65496 34.7826 9.03051 34.7826 8.2602C34.7826 7.4899 35.4053 6.86544 36.1735 6.86544H36.85V3.47892C36.85 2.48063 37.618 1.71052 38.6136 1.71052H44.7009C48.7496 1.71052 51.4699 3.70851 52.1181 6.86544H52.8653C53.6335 6.86544 54.2562 7.4899 54.2562 8.2602C54.2562 9.03051 53.6335 9.65496 52.8653 9.65496H52.1735C51.5823 13.3414 48.2689 15.2588 44.3027 15.2588H40.3488V20.0791C40.3488 21.0489 39.5808 21.819 38.6136 21.819ZM48.6989 8.12369C48.6946 8.1686 48.6923 8.21414 48.6923 8.2602C48.6923 8.33974 48.699 8.41771 48.7117 8.49361V8.52744C48.7117 10.6096 47.0619 12.0928 44.4165 12.0928H40.3488V4.90506H44.4165C46.9009 4.90506 48.5394 6.01048 48.6989 8.12369ZM56.1483 20.0791C56.1483 21.0489 56.9163 21.819 57.9119 21.819C58.879 21.819 59.6471 21.0489 59.6471 20.0791V14.7168H64.056L68.8918 20.9063C69.2901 21.4482 69.8021 21.819 70.5986 21.819C71.4519 21.819 72.2767 21.163 72.2767 20.1932C72.2767 19.6513 72.0491 19.2805 71.7078 18.8526L67.8962 14.0323C70.5701 13.2052 72.4191 11.2656 72.4191 8.0711V8.01399C72.4191 6.27411 71.8217 4.79098 70.7692 3.70712C69.4892 2.45212 67.5264 1.71051 65.0232 1.71051H57.9119C56.9163 1.71051 56.1483 2.48063 56.1483 3.47892V20.0791ZM59.6471 11.6079V4.90507H64.7388C67.3274 4.90507 68.8634 6.07448 68.8634 8.21368V8.27071C68.8634 10.2958 67.2705 11.6079 64.7673 11.6079H59.6471Z"
        fill="white" />
</svg>